<svg width="1480" height="833" viewBox="0 0 1480 833" fill="none" xmlns="http://www.w3.org/2000/svg">
<g clip-path="url(#clip0_66_137)">
<mask id="mask0_66_137" style="mask-type:luminance" maskUnits="userSpaceOnUse" x="0" y="0" width="1481" height="833">
<path d="M1480.45 0.169922H0.330078V832.74H1480.45V0.169922Z" fill="white"/>
</mask>
<g mask="url(#mask0_66_137)">
<path d="M1492.79 -16.0801H-12V849.01H1492.79V-16.0801Z" fill="#E1EFEC"/>
<path opacity="0.4" d="M1492.79 -16.0801H-12V849.01H1492.79V-16.0801Z" fill="url(#paint0_linear_66_137)"/>
<g opacity="0.7">
<path d="M1393.86 705.99C1401.89 698.05 1406.48 687.279 1406.65 675.99C1406.76 670.485 1405.75 665.015 1403.69 659.909C1401.62 654.804 1398.55 650.168 1394.65 646.28L1364.65 616.28L1358.65 622.28L1388.65 652.28C1391.77 655.4 1394.23 659.116 1395.88 663.207C1397.53 667.298 1398.33 671.68 1398.25 676.09C1398.13 685.148 1394.46 693.796 1388.02 700.17C1374.63 713.57 1353.15 713.86 1340.13 700.84L1331.65 692.36C1327.77 688.458 1323.13 685.384 1318.03 683.321C1312.92 681.259 1307.45 680.252 1301.95 680.36C1290.66 680.539 1279.89 685.134 1271.95 693.16C1255.25 709.86 1254.88 736.65 1271.13 752.89L1306.13 787.89L1312.13 781.89L1277.13 746.89C1264.13 733.89 1264.42 712.35 1277.8 699.01C1284.18 692.573 1292.82 688.887 1301.88 688.74C1306.29 688.655 1310.67 689.461 1314.76 691.111C1318.85 692.761 1322.56 695.22 1325.68 698.34L1334.16 706.83C1350.33 723.06 1377.16 722.68 1393.86 705.99Z" fill="white"/>
<path d="M1171.01 525.25L1269.01 623.31C1295.01 649.31 1337.68 648.68 1364.37 621.98C1391.06 595.28 1391.65 552.61 1365.68 526.65L1267.62 428.59C1264.04 425.112 1259.23 423.198 1254.24 423.269C1249.25 423.341 1244.49 425.391 1241.01 428.97L1171.35 498.65C1169.58 500.371 1168.16 502.424 1167.18 504.692C1166.2 506.96 1165.68 509.399 1165.65 511.869C1165.61 514.339 1166.06 516.792 1166.97 519.088C1167.88 521.384 1169.24 523.478 1170.96 525.25H1171.01Z" fill="#79C9BC"/>
<path d="M1171.01 525.25L1216.2 570.45L1312.85 473.81L1267.66 428.62C1264.08 425.142 1259.27 423.229 1254.28 423.3C1249.29 423.371 1244.53 425.421 1241.05 429L1171.39 498.67C1167.82 502.146 1165.77 506.898 1165.7 511.881C1165.63 516.865 1167.54 521.673 1171.01 525.25Z" fill="#BDE5DE"/>
<path d="M1171.01 525.25L1269.01 623.31C1294.92 649.21 1337.65 648.67 1364.35 621.98C1391.04 595.29 1391.63 552.61 1365.67 526.65L1267.62 428.59C1264.04 425.113 1259.22 423.199 1254.23 423.268C1249.24 423.337 1244.48 425.384 1241 428.96L1171.33 498.64C1169.56 500.366 1168.15 502.423 1167.18 504.695C1166.2 506.966 1165.69 509.407 1165.66 511.879C1165.63 514.35 1166.08 516.803 1167 519.097C1167.92 521.391 1169.28 523.482 1171.01 525.25ZM1177.01 519.25C1176.05 518.271 1175.29 517.113 1174.78 515.842C1174.27 514.57 1174.01 513.21 1174.02 511.839C1174.04 510.468 1174.32 509.113 1174.86 507.852C1175.4 506.591 1176.18 505.449 1177.16 504.49L1246.84 434.8C1248.77 432.812 1251.41 431.671 1254.18 431.628C1256.95 431.585 1259.62 432.643 1261.61 434.57L1359.67 532.62C1382.36 555.31 1381.87 592.76 1358.51 616.09C1335.15 639.42 1297.73 639.95 1275.03 617.25L1177.01 519.25Z" fill="white"/>
<path d="M1228.94 540.15L1246.73 522.36L1229.43 505.07L1247.48 487.01L1264.78 504.31L1282.56 486.53L1300.13 504.08L1282.34 521.87L1299.63 539.17L1281.59 557.22L1264.28 539.92L1246.5 557.71L1228.94 540.15Z" fill="white"/>
</g>
<g opacity="0.7">
<path d="M1168.76 205.17C1171.05 211.031 1173.81 216.694 1177.03 222.1C1178.26 224.15 1179.49 226.35 1181.03 228.67C1191.5 245.1 1209.77 268.31 1241.03 295.46L1283.77 332.61L1326.49 295.46C1354.97 270.69 1372.67 249.2 1383.49 233.14C1385.05 230.82 1386.49 228.64 1387.74 226.58C1392.04 219.805 1395.68 212.636 1398.62 205.17C1404.16 190.25 1404.05 173.817 1398.3 158.974C1392.56 144.132 1381.57 131.908 1367.43 124.61C1353.28 117.313 1336.96 115.447 1321.53 119.366C1306.1 123.285 1292.65 132.716 1283.7 145.88C1274.76 132.706 1261.3 123.264 1245.87 119.338C1230.44 115.413 1214.1 117.277 1199.95 124.576C1185.8 131.876 1174.81 144.107 1169.07 158.957C1163.32 173.807 1163.22 190.247 1168.77 205.17H1168.76Z" fill="#79C9BC"/>
<path d="M1168.75 205.17C1171.04 211.053 1173.81 216.739 1177.03 222.17C1178.26 224.17 1179.49 226.4 1181.03 228.72C1191.5 245.15 1209.78 268.36 1240.98 295.51L1283.72 332.66L1326.45 295.51C1354.94 270.74 1372.64 249.25 1383.45 233.19C1385.01 230.88 1386.45 228.69 1387.7 226.63C1392.01 219.855 1395.67 212.686 1398.63 205.22C1404.17 190.3 1404.06 173.867 1398.31 159.024C1392.57 144.182 1381.58 131.958 1367.44 124.66C1353.29 117.362 1336.97 115.497 1321.54 119.416C1306.11 123.334 1292.66 132.766 1283.71 145.93C1274.78 132.734 1261.32 123.272 1245.88 119.334C1230.44 115.396 1214.09 117.255 1199.93 124.561C1185.77 131.866 1174.78 144.11 1169.04 158.975C1163.3 173.839 1163.2 190.293 1168.78 205.22L1168.75 205.17ZM1188.83 228.6L1215.21 228.53L1224.56 252.53L1233.56 208.12L1252.25 284.54L1267.56 189.54L1278.89 233.17H1375.45C1362.21 251.98 1344.28 271.26 1322.1 290.52L1283.68 323.94L1245.26 290.52C1216.01 265.13 1198.66 243.39 1188.83 228.69V228.6ZM1176.5 158.05C1180.82 148.6 1187.58 140.47 1196.08 134.494C1204.58 128.518 1214.52 124.91 1224.87 124.042C1235.23 123.174 1245.62 125.076 1255 129.553C1264.38 134.03 1272.4 140.922 1278.23 149.52L1283.66 157.52L1289.11 149.52C1297.15 137.671 1309.25 129.177 1323.12 125.645C1337 122.114 1351.69 123.789 1364.41 130.354C1377.14 136.92 1387.01 147.92 1392.18 161.275C1397.34 174.629 1397.43 189.413 1392.43 202.83C1389.62 209.895 1386.15 216.679 1382.06 223.09C1381.37 224.21 1380.63 225.36 1379.86 226.54H1283.95L1266.05 157.6L1250.91 251.44L1232.97 178.02L1222.56 229.36L1219.68 221.96L1184.68 222.07C1184.05 221.07 1183.44 219.96 1182.68 218.79C1179.66 213.689 1177.06 208.355 1174.89 202.84C1172.19 195.636 1170.94 187.967 1171.21 180.278C1171.49 172.588 1173.29 165.03 1176.51 158.04L1176.5 158.05Z" fill="white"/>
</g>
<g opacity="0.7">
<path d="M1460.08 58.3561L1428.45 89.985C1422.87 95.5617 1422.87 104.603 1428.45 110.18L1542.05 223.784C1547.63 229.36 1556.67 229.36 1562.25 223.784L1593.88 192.155C1599.45 186.578 1599.45 177.537 1593.88 171.96L1480.27 58.3561C1474.7 52.7794 1465.65 52.7795 1460.08 58.3561Z" fill="#BDE5DE"/>
<path d="M1430.1 8.19866L1378.27 60.0225L1389.7 71.4493L1441.53 19.6255L1430.1 8.19866Z" fill="#BDE5DE"/>
<path d="M1430.19 88.2503L1427.6 76.5603L1406.1 55.0603L1425.13 36.0303L1446.63 57.5303L1458.34 60.1203L1430.19 88.2503Z" fill="#79C9BC"/>
<path d="M1428.45 110.17L1519.51 201.17L1524.45 206.1L1542.08 223.74C1543.41 225.067 1544.98 226.12 1546.72 226.838C1548.45 227.556 1550.31 227.926 1552.18 227.926C1554.06 227.926 1555.92 227.556 1557.65 226.838C1559.39 226.12 1560.96 225.067 1562.29 223.74L1575.65 210.37L1626.56 261.29C1626.88 261.615 1627.27 261.872 1627.69 262.047C1628.12 262.223 1628.57 262.313 1629.03 262.313C1629.49 262.313 1629.94 262.223 1630.37 262.047C1630.79 261.872 1631.18 261.615 1631.5 261.29C1631.82 260.966 1632.08 260.581 1632.26 260.157C1632.43 259.733 1632.52 259.279 1632.52 258.82C1632.52 258.361 1632.43 257.907 1632.26 257.483C1632.08 257.06 1631.82 256.675 1631.5 256.35L1580.57 205.44L1593.93 192.17C1596.6 189.488 1598.11 185.854 1598.11 182.065C1598.11 178.277 1596.6 174.643 1593.93 171.96L1480.33 58.3802C1479 57.0531 1477.43 56.0004 1475.69 55.2822C1473.96 54.564 1472.1 54.1943 1470.22 54.1943C1468.35 54.1943 1466.49 54.564 1464.76 55.2822C1463.02 56.0004 1461.45 57.0531 1460.12 58.3802L1428.51 89.9902C1425.83 92.661 1424.32 96.285 1424.31 100.068C1424.3 103.851 1425.79 107.484 1428.45 110.17ZM1431.19 100.07C1431.19 99.1033 1431.37 98.1452 1431.74 97.2523C1432.12 96.3593 1432.66 95.5495 1433.35 94.8702L1464.96 63.2402C1466.35 61.8662 1468.22 61.0953 1470.17 61.0953C1472.12 61.0953 1473.99 61.8662 1475.38 63.2402L1588.98 176.84C1590.35 178.226 1591.12 180.099 1591.12 182.05C1591.12 184.002 1590.35 185.874 1588.98 187.26L1557.33 218.89C1555.95 220.269 1554.07 221.043 1552.12 221.043C1550.17 221.043 1548.29 220.269 1546.91 218.89L1540.84 212.83L1561.84 191.83L1556.91 186.89L1535.91 207.89L1529.27 201.22L1537.33 193.17L1532.4 188.23L1524.34 196.3L1517.72 189.67L1538.72 168.67L1533.78 163.73L1512.78 184.73L1505.07 177.01L1513.13 169.01L1508.2 164.07L1500.14 172.14L1492.42 164.42L1513.42 143.42L1508.49 138.48L1487.49 159.48L1480.87 152.86L1488.93 144.81L1484 139.87L1475.93 147.94L1468.2 140.19L1489.2 119.19L1484.26 114.26L1463.26 135.26L1456.67 128.66L1464.74 120.59L1459.8 115.66L1451.74 123.73L1443.96 115.94L1464.96 94.9402L1460.03 90.0102L1439.03 111.01L1432.97 104.95C1431.79 103.618 1431.14 101.9 1431.14 100.12L1431.19 100.07Z" fill="white"/>
</g>
<g opacity="0.7">
<path d="M1448.47 489.535L1416.84 521.164C1411.26 526.741 1411.26 535.783 1416.84 541.359L1530.44 654.963C1536.02 660.54 1545.06 660.54 1550.64 654.963L1582.27 623.334C1587.84 617.757 1587.84 608.716 1582.27 603.139L1468.66 489.535C1463.09 483.959 1454.05 483.959 1448.47 489.535Z" fill="#BDE5DE"/>
<path d="M1525.47 546.35L1468.73 489.55C1467.4 488.223 1465.83 487.171 1464.1 486.453C1462.36 485.735 1460.51 485.365 1458.63 485.365C1456.75 485.365 1454.9 485.735 1453.16 486.453C1451.43 487.171 1449.86 488.223 1448.53 489.55L1416.92 521.17C1415.59 522.496 1414.54 524.071 1413.82 525.804C1413.1 527.537 1412.73 529.394 1412.73 531.27C1412.73 533.146 1413.1 535.004 1413.82 536.737C1414.54 538.47 1415.59 540.044 1416.92 541.37L1473.65 598.17L1525.47 546.35Z" fill="#79C9BC"/>
<path d="M1582.26 603.17L1491.19 512.06L1486.26 507.13L1468.62 489.49C1465.94 486.815 1462.31 485.313 1458.52 485.313C1454.73 485.313 1451.1 486.815 1448.42 489.49L1435.05 502.86L1384.24 452.01C1383.58 451.407 1382.71 451.082 1381.81 451.104C1380.91 451.125 1380.06 451.491 1379.42 452.125C1378.79 452.759 1378.42 453.613 1378.4 454.509C1378.38 455.406 1378.71 456.276 1379.31 456.94L1430.22 507.86L1416.85 521.17C1414.18 523.851 1412.67 527.483 1412.67 531.27C1412.67 535.057 1414.18 538.689 1416.85 541.37L1530.45 654.97C1533.13 657.645 1536.77 659.148 1540.55 659.148C1544.34 659.148 1547.98 657.645 1550.66 654.97L1582.27 623.36C1584.95 620.682 1586.45 617.051 1586.45 613.265C1586.45 609.479 1584.95 605.848 1582.27 603.17H1582.26ZM1579.53 613.27C1579.53 614.237 1579.35 615.195 1578.97 616.088C1578.6 616.981 1578.06 617.791 1577.37 618.47L1545.82 650.1C1544.43 651.479 1542.56 652.254 1540.6 652.254C1538.65 652.254 1536.77 651.479 1535.39 650.1L1421.8 536.5C1420.43 535.114 1419.65 533.242 1419.65 531.29C1419.65 529.338 1420.43 527.466 1421.8 526.08L1453.33 494.44C1454.72 493.065 1456.59 492.294 1458.54 492.294C1460.5 492.294 1462.37 493.065 1463.76 494.44L1469.83 500.5L1448.83 521.5L1453.76 526.43L1474.76 505.43L1481.43 512.11L1473.43 520.17L1478.36 525.11L1486.43 517.04L1493.05 523.66L1472.05 544.66L1476.99 549.6L1497.99 528.6L1505.69 536.32L1497.69 544.37L1502.62 549.31L1510.69 541.24L1518.4 548.96L1497.4 569.96L1502.33 574.89L1523.33 553.89L1529.96 560.51L1521.89 568.51L1526.82 573.45L1534.89 565.38L1542.64 573.13L1521.64 594.13L1526.57 599.07L1547.57 578.07L1554.17 584.67L1546.1 592.72L1551.04 597.66L1559.1 589.59L1566.87 597.37L1545.87 618.37L1550.8 623.31L1571.8 602.31L1577.85 608.31C1579.02 609.651 1579.65 611.372 1579.64 613.15L1579.53 613.27Z" fill="white"/>
</g>
<g opacity="0.7">
<path d="M1008.85 -88.6401C1027.99 -51.4601 1045.05 -4.01014 1018.23 22.8199C991.41 49.6499 943.96 32.5699 906.8 13.4399L923.6 4.28986C923.6 4.28986 958.6 20.8299 987.4 -8.04014C1016.2 -36.9101 999.73 -71.8301 999.73 -71.8301L1008.85 -88.6401Z" fill="#79C9BC"/>
<path d="M1021.18 25.7798C982.85 64.1098 908.83 20.4498 873.26 -0.520233C854.33 -11.6202 822.15 -34.4302 818.7 -61.6702C817.13 -73.9302 821.7 -85.4502 832.12 -95.9302L838.03 -90.0202C829.39 -81.3802 825.76 -72.4302 827.03 -62.7202C830.15 -38.1302 863.39 -16.0602 877.6 -7.72023C908.67 10.6398 981.55 53.6298 1015.31 19.8998C1049.07 -13.8302 1006.03 -86.7402 987.68 -117.83C979.34 -131.99 957.28 -165.23 932.68 -168.4C922.98 -169.63 914.05 -166.02 905.39 -157.3L899.5 -163.24C909.96 -173.71 921.5 -178.24 933.76 -176.67C945.45 -175.19 968.95 -166.13 994.91 -122.11C1015.85 -86.5802 1059.52 -12.5602 1021.18 25.7798Z" fill="white"/>
<path d="M1154.33 106.43C1146.58 114.177 1136.07 118.53 1125.12 118.53C1114.16 118.53 1103.65 114.177 1095.9 106.43L1015.26 25.78L1021.17 19.9L1101.78 100.51C1107.99 106.306 1116.2 109.483 1124.7 109.379C1133.19 109.274 1141.32 105.897 1147.39 99.9497C1153.46 94.0025 1157 85.9439 1157.28 77.4517C1157.55 68.9595 1154.54 60.6882 1148.87 54.36C1148.72 54.2 1148.56 54.04 1148.4 53.89L1089.08 -5.47002C1085.23 -9.29718 1082.17 -13.852 1080.09 -18.8698C1078.01 -23.8877 1076.95 -29.2686 1076.97 -34.7C1076.96 -40.1369 1078.02 -45.5228 1080.1 -50.5466C1082.18 -55.5705 1085.23 -60.1328 1089.08 -63.97C1096.84 -71.7064 1107.35 -76.0508 1118.31 -76.0508C1129.26 -76.0508 1139.77 -71.7064 1147.53 -63.97L1218.74 7.28999L1212.74 13.2L1141.63 -58.01C1135.44 -64.1898 1127.06 -67.661 1118.31 -67.661C1109.57 -67.661 1101.18 -64.1898 1094.99 -58.01C1091.92 -54.9512 1089.49 -51.3163 1087.83 -47.3142C1086.17 -43.3122 1085.32 -39.0219 1085.33 -34.69C1085.32 -30.357 1086.17 -26.0653 1087.83 -22.0627C1089.49 -18.0602 1091.93 -14.426 1095 -11.37L1154.33 47.98C1162.07 55.7387 1166.41 66.2483 1166.41 77.205C1166.41 88.1617 1162.07 98.6713 1154.33 106.43Z" fill="white"/>
<path d="M1215.78 37.7997C1231 37.7997 1243.33 25.4652 1243.33 10.2497C1243.33 -4.96573 1231 -17.3003 1215.78 -17.3003C1200.56 -17.3003 1188.23 -4.96573 1188.23 10.2497C1188.23 25.4652 1200.56 37.7997 1215.78 37.7997Z" fill="#79C9BC"/>
<path d="M1215.78 24.0799C1223.42 24.0799 1229.61 17.888 1229.61 10.2499C1229.61 2.61183 1223.42 -3.58008 1215.78 -3.58008C1208.14 -3.58008 1201.95 2.61183 1201.95 10.2499C1201.95 17.888 1208.14 24.0799 1215.78 24.0799Z" fill="#BDE5DE"/>
</g>
<g opacity="0.7">
<path d="M1095.99 878.98C1076.85 841.83 1059.79 794.38 1086.61 767.55C1113.43 740.72 1160.88 757.79 1198.03 776.94L1181.23 786.08C1181.23 786.08 1146.29 769.55 1117.45 798.41C1088.61 827.27 1105.12 862.17 1105.12 862.17L1095.99 878.98Z" fill="#79C9BC"/>
<path d="M1083.65 764.6C1121.99 726.27 1196.01 769.92 1231.58 790.9C1250.48 802 1282.68 824.81 1286.15 852.04C1287.7 864.3 1283.15 875.83 1272.72 886.29L1266.81 880.4C1275.44 871.76 1279.14 862.81 1277.91 853.11C1274.79 828.52 1241.53 806.45 1227.34 798.11C1196.21 779.76 1123.34 736.77 1089.56 770.52C1055.78 804.27 1098.8 877.18 1117.15 908.3C1125.5 922.44 1147.57 955.7 1172.15 958.87C1181.86 960.1 1190.79 956.49 1199.45 947.77L1205.39 953.62C1194.93 964.1 1183.39 968.62 1171.14 967.06C1159.45 965.58 1135.95 956.51 1110 912.49C1088.98 876.94 1045.33 802.93 1083.65 764.6Z" fill="white"/>
<path d="M950.48 683.95C958.23 676.202 968.741 671.85 979.7 671.85C990.659 671.85 1001.17 676.202 1008.92 683.95L1089.56 764.59L1083.65 770.5L1003.01 689.86C999.982 686.636 996.338 684.053 992.293 682.264C988.248 680.476 983.884 679.519 979.462 679.451C975.04 679.382 970.649 680.203 966.55 681.865C962.452 683.527 958.729 685.996 955.603 689.125C952.478 692.254 950.013 695.979 948.355 700.08C946.698 704.18 945.881 708.572 945.955 712.994C946.028 717.416 946.99 721.778 948.782 725.822C950.575 729.865 953.162 733.506 956.39 736.53L1015.75 795.89C1023.17 803.703 1027.25 814.107 1027.11 824.883C1026.98 835.658 1022.63 845.955 1015.02 853.576C1007.4 861.198 997.102 865.542 986.326 865.683C975.55 865.824 965.145 861.75 957.33 854.33L886.1 783.17L892 777.26L963.21 848.47C969.469 854.27 977.733 857.42 986.265 857.258C994.798 857.096 1002.94 853.635 1008.97 847.601C1015.01 841.567 1018.47 833.43 1018.63 824.898C1018.8 816.365 1015.65 808.101 1009.85 801.84L950.48 742.48C934.93 726.39 935.4 700.45 950.48 683.95Z" fill="white"/>
<path d="M889.06 807.68C904.275 807.68 916.61 795.346 916.61 780.13C916.61 764.915 904.275 752.58 889.06 752.58C873.844 752.58 861.51 764.915 861.51 780.13C861.51 795.346 873.844 807.68 889.06 807.68Z" fill="#79C9BC"/>
<path d="M889.06 793.96C896.698 793.96 902.89 787.768 902.89 780.13C902.89 772.492 896.698 766.3 889.06 766.3C881.421 766.3 875.229 772.492 875.229 780.13C875.229 787.768 881.421 793.96 889.06 793.96Z" fill="#BDE5DE"/>
</g>
<g opacity="0.7">
<path d="M1559.39 817.17C1578.52 854.31 1595.59 901.76 1568.76 928.59C1541.93 955.42 1494.49 938.31 1457.33 919.17L1474.13 910.01C1474.13 910.01 1509.06 926.55 1537.91 897.68C1566.76 868.81 1550.24 833.9 1550.24 833.9L1559.39 817.17Z" fill="#79C9BC"/>
<path d="M1571.72 931.51C1533.4 969.85 1459.38 926.19 1423.81 905.21C1404.91 894.11 1372.7 871.31 1369.24 844.06C1367.69 831.8 1372.24 820.28 1382.68 809.81L1388.58 815.72C1379.95 824.35 1376.25 833.32 1377.48 843.01C1380.6 867.61 1413.86 889.67 1428.05 898.01C1459.17 916.38 1532.05 959.36 1565.82 925.6C1599.59 891.84 1556.59 818.96 1538.24 787.84C1529.89 773.68 1507.82 740.44 1483.24 737.27C1473.54 736.04 1464.61 739.65 1455.94 748.37L1450.03 742.46C1460.5 731.99 1472.03 727.46 1484.3 729.03C1495.99 730.51 1519.47 739.58 1545.44 783.6C1566.41 819.17 1610.06 893.17 1571.72 931.51Z" fill="white"/>
<path d="M1376.95 804.1L1397.95 783.1C1400.26 780.817 1403.37 779.537 1406.62 779.537C1409.87 779.537 1412.98 780.817 1415.29 783.1C1417.57 785.408 1418.85 788.524 1418.85 791.77C1418.85 795.016 1417.57 798.132 1415.29 800.44L1394.29 821.44L1376.95 804.1Z" fill="#79C9BC"/>
<path d="M1444.33 736.74L1423.33 757.74C1422.19 758.877 1421.29 760.227 1420.67 761.713C1420.06 763.199 1419.74 764.792 1419.74 766.4C1419.74 768.009 1420.06 769.602 1420.67 771.088C1421.29 772.573 1422.19 773.923 1423.33 775.06C1424.47 776.198 1425.82 777.101 1427.3 777.717C1428.79 778.333 1430.38 778.65 1431.99 778.65C1433.6 778.65 1435.19 778.333 1436.68 777.717C1438.16 777.101 1439.51 776.198 1440.65 775.06L1461.65 754.06L1444.33 736.74Z" fill="#79C9BC"/>
</g>
<g opacity="0.7">
<path d="M1412.13 299.43L1465.72 353.03L1524.93 293.83L1471.33 240.23C1463.48 232.38 1452.83 227.97 1441.73 227.971C1430.62 227.972 1419.98 232.383 1412.12 240.235C1404.27 248.087 1399.86 258.735 1399.87 269.839C1399.87 280.942 1404.28 291.59 1412.13 299.44V299.43Z" fill="#79C9BC"/>
<path d="M1465.72 353.03L1519.32 406.61C1523.21 410.497 1527.82 413.581 1532.9 415.684C1537.98 417.788 1543.42 418.871 1548.92 418.871C1554.42 418.871 1559.86 417.788 1564.94 415.684C1570.02 413.581 1574.63 410.497 1578.52 406.61C1582.41 402.723 1585.49 398.108 1587.59 393.029C1589.7 387.951 1590.78 382.507 1590.78 377.01C1590.78 371.513 1589.7 366.069 1587.59 360.991C1585.49 355.912 1582.41 351.297 1578.52 347.41L1524.94 293.83L1465.72 353.03Z" fill="#BDE5DE"/>
<path d="M1465.72 353.03L1519.32 406.61C1523.21 410.497 1527.82 413.581 1532.9 415.684C1537.98 417.788 1543.42 418.871 1548.92 418.871C1554.42 418.871 1559.86 417.788 1564.94 415.684C1570.02 413.581 1574.63 410.497 1578.52 406.61C1582.41 402.723 1585.49 398.108 1587.59 393.029C1589.7 387.951 1590.78 382.507 1590.78 377.01C1590.78 371.513 1589.7 366.069 1587.59 360.991C1585.49 355.912 1582.41 351.297 1578.52 347.41L1524.94 293.83L1465.72 353.03ZM1474.25 353.03L1524.93 302.36L1574.27 351.7C1581.21 358.198 1585.28 367.186 1585.6 376.688C1585.91 386.189 1582.43 395.426 1575.93 402.365C1569.44 409.304 1560.45 413.378 1550.95 413.691C1541.45 414.003 1532.21 410.528 1525.27 404.03C1524.69 403.49 1524.12 402.93 1523.58 402.34L1474.25 353.03Z" fill="white"/>
<path d="M1395.33 420.99C1402.67 425.885 1411.48 428.085 1420.26 427.217C1429.04 426.348 1437.25 422.464 1443.49 416.225C1449.72 409.987 1453.61 401.779 1454.48 392.999C1455.35 384.22 1453.15 375.41 1448.25 368.07L1395.33 420.99Z" fill="#BDE5DE"/>
<path d="M1384.67 410.37L1437.59 357.45C1430.25 352.555 1421.44 350.354 1412.66 351.223C1403.88 352.092 1395.67 355.976 1389.43 362.214C1383.2 368.453 1379.31 376.661 1378.44 385.44C1377.57 394.22 1379.77 403.03 1384.67 410.37Z" fill="#BDE5DE"/>
<path d="M1384.67 410.37L1384.8 410.57C1386.17 412.593 1387.73 414.482 1389.46 416.21C1391.18 417.937 1393.06 419.494 1395.08 420.86L1395.29 420.99L1448.21 368.07L1448.08 367.87C1445.34 363.819 1441.85 360.327 1437.8 357.58L1437.59 357.45L1384.67 410.37Z" fill="#79C9BC"/>
<path d="M1389.46 362.23C1393 358.679 1397.21 355.863 1401.84 353.946C1406.48 352.029 1411.45 351.048 1416.46 351.06V357.06C1410.63 357.054 1404.9 358.637 1399.9 361.639C1394.89 364.641 1390.8 368.948 1388.06 374.099C1385.32 379.25 1384.04 385.049 1384.34 390.876C1384.65 396.702 1386.54 402.335 1389.8 407.17C1390.96 408.869 1392.27 410.456 1393.72 411.91C1399.37 417.539 1406.92 420.862 1414.89 421.234C1422.86 421.606 1430.68 419 1436.84 413.923C1442.99 408.845 1447.03 401.66 1448.18 393.765C1449.33 385.87 1447.5 377.831 1443.05 371.21C1441.91 369.505 1440.6 367.918 1439.14 366.47C1436.16 363.483 1432.61 361.114 1428.71 359.499C1424.81 357.884 1420.63 357.055 1416.41 357.06V351.06C1425.24 351.066 1433.79 354.132 1440.61 359.736C1447.43 365.34 1452.1 373.136 1453.82 381.795C1455.53 390.454 1454.2 399.441 1450.03 407.225C1445.87 415.008 1439.13 421.107 1430.97 424.482C1422.82 427.856 1413.74 428.299 1405.3 425.733C1396.85 423.167 1389.55 417.752 1384.65 410.41C1379.75 403.068 1377.54 394.254 1378.41 385.468C1379.28 376.683 1383.17 368.471 1389.41 362.23H1389.46Z" fill="white"/>
</g>
</g>
</g>
<defs>
<linearGradient id="paint0_linear_66_137" x1="1746.67" y1="1038.09" x2="-225.52" y2="-180.23" gradientUnits="userSpaceOnUse">
<stop offset="0.03" stop-color="#79C9BC"/>
<stop offset="0.05" stop-color="#86CEC3"/>
<stop offset="0.11" stop-color="#A6DBD3"/>
<stop offset="0.18" stop-color="#C2E6E1"/>
<stop offset="0.26" stop-color="#D9F0EC"/>
<stop offset="0.35" stop-color="#EAF7F4"/>
<stop offset="0.46" stop-color="#F6FBFB"/>
<stop offset="0.61" stop-color="#FDFEFE"/>
<stop offset="1" stop-color="white"/>
</linearGradient>
<clipPath id="clip0_66_137">
<rect width="1480" height="833" fill="white"/>
</clipPath>
</defs>
</svg>
