<svg width="195" height="94" viewBox="0 0 195 94" fill="none" xmlns="http://www.w3.org/2000/svg">
<path d="M100.285 59.7285V39.2574H106.378V59.7285H100.285ZM103.331 36.9016C102.248 36.9016 101.368 36.5902 100.691 35.9674C100.014 35.3446 99.6757 34.5593 99.6757 33.6116C99.6757 32.6368 100.014 31.838 100.691 31.2152C101.368 30.5924 102.248 30.281 103.331 30.281C104.441 30.281 105.335 30.5924 106.012 31.2152C106.716 31.838 107.068 32.6368 107.068 33.6116C107.068 34.5593 106.716 35.3446 106.012 35.9674C105.335 36.5902 104.441 36.9016 103.331 36.9016ZM111.828 59.7285V31.2964H117.92V55.0169H130.187V59.7285H111.828ZM141.818 60.2159C140.112 60.2159 138.69 59.9451 137.553 59.4036C136.443 58.862 135.617 58.1309 135.075 57.2102C134.561 56.2625 134.303 55.22 134.303 54.0827C134.303 52.8642 134.601 51.7946 135.197 50.8739C135.82 49.9262 136.781 49.1816 138.081 48.64C139.381 48.0714 141.019 47.787 142.996 47.787H147.951C147.951 46.8664 147.829 46.1082 147.585 45.5125C147.369 44.9167 147.003 44.47 146.489 44.1721C145.974 43.8742 145.27 43.7253 144.377 43.7253C143.429 43.7253 142.63 43.9149 141.98 44.2939C141.33 44.673 140.924 45.2688 140.762 46.0811H134.913C135.048 44.6189 135.522 43.3462 136.334 42.2631C137.174 41.18 138.284 40.327 139.665 39.7042C141.046 39.0814 142.63 38.77 144.417 38.77C146.367 38.77 148.059 39.0949 149.494 39.7448C150.93 40.3676 152.04 41.2883 152.825 42.5068C153.637 43.7253 154.043 45.2417 154.043 47.0559V59.7285H148.966L148.235 56.7635C147.937 57.2779 147.585 57.7518 147.179 58.1851C146.773 58.5912 146.299 58.9568 145.758 59.2817C145.216 59.5796 144.62 59.8098 143.97 59.9722C143.321 60.1347 142.603 60.2159 141.818 60.2159ZM143.321 55.5856C143.97 55.5856 144.539 55.4772 145.026 55.2606C145.514 55.044 145.934 54.7461 146.286 54.367C146.638 53.9879 146.922 53.5547 147.139 53.0673C147.382 52.5528 147.558 51.9977 147.667 51.402V51.3614H143.727C143.05 51.3614 142.481 51.4561 142.021 51.6457C141.588 51.8081 141.263 52.0518 141.046 52.3768C140.829 52.7017 140.721 53.0808 140.721 53.5141C140.721 53.9744 140.829 54.367 141.046 54.692C141.29 54.9898 141.601 55.22 141.98 55.3825C142.386 55.5179 142.833 55.5856 143.321 55.5856ZM171.576 60.2159C170.574 60.2159 169.667 60.0941 168.855 59.8504C168.07 59.6067 167.366 59.2682 166.743 58.8349C166.147 58.3746 165.633 57.8601 165.199 57.2915L164.509 59.7285H159.107V30.4841H165.199V41.9381C165.849 41.0175 166.689 40.2593 167.718 39.6636C168.747 39.0679 170.019 38.77 171.536 38.77C173.404 38.77 175.069 39.2439 176.532 40.1916C178.021 41.1123 179.199 42.3849 180.065 44.0096C180.932 45.6072 181.365 47.4486 181.365 49.5336C181.365 51.5644 180.932 53.3922 180.065 55.0169C179.199 56.6416 178.034 57.9143 176.572 58.8349C175.11 59.7556 173.445 60.2159 171.576 60.2159ZM170.073 54.8951C171.048 54.8951 171.915 54.6649 172.673 54.2046C173.458 53.7442 174.067 53.1214 174.501 52.3362C174.934 51.5238 175.151 50.5896 175.151 49.5336C175.151 48.4775 174.934 47.5433 174.501 46.731C174.067 45.8916 173.458 45.2417 172.673 44.7814C171.915 44.321 171.048 44.0909 170.073 44.0909C169.071 44.0909 168.178 44.3346 167.393 44.822C166.634 45.2823 166.039 45.9186 165.605 46.731C165.172 47.5163 164.956 48.4504 164.956 49.5336C164.956 50.5625 165.172 51.4832 165.605 52.2956C166.039 53.1079 166.634 53.7442 167.393 54.2046C168.178 54.6649 169.071 54.8951 170.073 54.8951Z" fill="url(#paint0_linear_6_325)"/>
<path d="M77.6386 76.802C75.265 79.7845 72.2017 81.1877 68.3955 81.1097C65.9484 81.0607 63.5014 81.1276 61.0543 81.1944C60.387 81.2122 60.1 81.0184 59.9154 80.3435C58.7653 76.1271 59.1635 71.9797 60.3336 67.8502C61.4859 63.783 63.5058 60.0544 64.7672 56.0139C65.5324 53.5638 65.8483 51.0446 66.271 48.5388C66.3177 45.1621 66.2487 41.801 65.1587 38.5468C63.6927 34.1366 60.9186 30.751 57.2659 27.9401C54.1314 25.5345 50.4676 24.8218 46.7303 24.3139C43.5758 23.8952 41.0265 26.6593 42.3857 30.2387C42.9552 31.74 44.4657 32.3614 46.0607 32.5374C49.9092 32.9628 53.1638 34.4707 55.5507 37.6336C57.4683 40.1773 58.1246 43.0862 58.0934 46.1956C58.0934 47.0866 57.9644 47.962 57.8954 48.8462C57.8376 50.0512 57.366 51.1627 57.1013 52.3209C57.1349 52.9431 56.9706 53.56 56.6319 54.0828L56.4094 54.7733C56.4392 54.8916 56.434 55.016 56.3945 55.1315C56.3551 55.247 56.2829 55.3484 56.187 55.4237C55.5574 56.9004 55.0124 58.4083 54.3161 59.865C53.5953 61.3752 53.2038 63.0391 52.661 64.6383C50.9277 69.6955 50.5661 75.1228 51.6132 80.3658C51.7512 81.0652 51.6466 81.2367 50.9125 81.2345C41.022 81.2063 31.1308 81.1951 21.2388 81.2011C17.853 81.2011 14.8743 80.0718 12.5407 77.6751C10.8856 75.9779 9.64876 73.8195 9.60205 71.3962C9.49972 64.8722 9.60205 58.346 9.6332 51.8198C9.41074 50.5412 9.53754 49.2516 9.52641 47.9686C9.50194 44.6877 9.52641 41.4046 9.51084 38.1236C9.51084 37.5824 9.62652 37.01 9.28838 36.5132V35.6223C10.8716 36.1242 12.4855 36.523 14.1202 36.8162C16.7029 37.2193 18.8341 35.972 19.2367 33.6154C19.6171 31.4126 18.4025 29.1607 15.5795 28.7152C14.0474 28.458 12.548 28.0338 11.1081 27.4501C10.4986 27.2117 9.978 26.7418 9.28394 26.7195V20.2601C9.92239 18.7165 10.2917 17.0794 11.2438 15.6472C13.4217 12.3596 16.5049 10.7648 20.349 10.5109C21.4902 10.4352 22.6425 10.4997 23.7837 10.4997C23.9395 10.796 23.6903 10.9207 23.5457 11.0544C20.5047 13.8586 17.5015 16.7097 14.3804 19.4226C13.6219 20.0908 12.9612 20.8548 12.1292 21.4473C11.4618 21.9239 11.3906 22.9285 11.9201 23.4096C12.6275 24.0533 13.2704 23.7459 13.8755 23.1869L25.8882 12.1257C26.3331 11.7248 26.758 11.3172 27.2029 10.9274C27.8369 10.375 28.927 10.2792 29.2918 10.7292C29.8769 11.4464 29.8591 12.5111 29.205 13.1058C25.7213 16.3102 22.2317 19.511 18.7362 22.708C18.4625 22.9575 18.1867 23.2069 17.9309 23.472C17.4214 23.9954 17.3013 24.5857 17.8219 25.1492C18.3424 25.7127 18.9742 25.6704 19.5192 25.2116C20.4269 24.4498 21.2989 23.6368 22.162 22.8349C24.7759 20.4316 27.3853 18.0238 30.1371 15.4846C30.4108 16.7876 30.2751 17.9681 30.1149 19.0907C29.5254 23.2181 28.0861 27.0647 26.3331 30.8513C25.2208 33.2457 24.5957 35.8718 23.9706 38.4644C23.036 42.3801 22.9389 46.4495 23.6859 50.4054C23.7304 50.6593 23.7281 50.9199 23.7481 51.1783C24.282 52.9045 24.7759 54.653 25.6769 56.2322C29.1783 62.3731 34.3727 66.0438 41.4135 67.0261C42.7483 67.2132 44.0986 67.5161 45.3288 66.6251C46.6391 65.6763 47.3598 64.3822 47.2108 62.7829C47.0462 61.0166 46.0451 59.7782 44.3188 59.2191C43.8405 59.061 43.3333 58.9964 42.6637 58.8471C43.9696 57.6443 45.182 56.5218 46.3988 55.4081C48.745 53.2564 51.0927 51.1033 53.4418 48.9487C53.9201 48.5032 54.3495 48.0265 54.0803 47.3093C53.8267 46.6411 53.2483 46.5342 52.621 46.5476L52.5409 46.532C48.5945 50.1581 44.6473 53.7858 40.6994 57.4149C39.9231 58.1277 37.8075 57.8292 37.2313 56.9271C37.0089 56.573 37.3248 56.4572 37.4849 56.3102C39.7718 54.2045 42.0653 52.1086 44.3656 50.0223C45.0129 49.4387 45.687 48.8663 46.3098 48.256C46.6035 47.9664 46.886 47.6501 47.1997 47.365L47.2709 47.3026C47.5267 47.0799 48.4454 46.2714 49.3531 45.4628L49.8291 45.0374C50.4965 44.4405 51.0927 43.8992 51.3307 43.6631L51.4219 43.5651L51.5843 43.4493H51.5977C52.0292 43.1686 52.572 42.7477 52.7611 42.2487C52.7835 42.2031 52.7985 42.1543 52.8056 42.104C52.928 41.5939 52.8056 41.0036 52.3273 40.7208C51.6132 40.2864 51.0727 40.7208 50.5477 41.1863C45.7782 45.5787 41.005 49.9666 36.228 54.3501C35.8788 54.6708 35.5607 55.3145 34.9511 54.9069C34.237 54.4369 33.5919 53.8244 33.405 52.958C33.3294 52.6127 33.8166 52.3811 34.0835 52.1361C38.3696 48.2025 42.66 44.2734 46.955 40.3488C47.2842 40.0481 47.6023 39.7385 47.9271 39.4333C48.4721 38.9188 48.7836 38.2862 48.1763 37.7004C47.5689 37.1146 46.7592 36.8696 46.1341 37.6358C44.826 39.2462 43.2866 40.6094 41.7672 42.0015C38.8753 44.6543 35.9678 47.3027 33.107 49.9933C32.3528 50.7016 32.1482 50.5346 31.8701 49.6213C31.4252 48.1401 31.5742 47.0799 32.8801 45.9662C36.0923 43.2288 39.1267 40.282 42.2433 37.4332C42.7461 36.9765 42.9418 36.4954 42.5414 35.9119C42.0275 35.159 41.4091 35.2102 40.7439 35.7337C39.2935 36.8763 37.9076 38.0902 36.5684 39.3621C34.9689 40.8834 33.365 42.398 31.6165 44.0551C31.4296 42.9236 31.6788 42.0149 31.8389 41.1061C32.5063 37.2349 34.1503 33.6956 35.6207 30.1006C37.9877 24.3407 38.9732 18.3802 38.2079 12.168C38.001 10.4797 38.0077 10.4953 39.7651 10.4975C49.4354 10.4975 59.1056 10.4975 68.7759 10.5176C72.5955 10.5176 75.6988 12.1213 77.8544 15.2485C79.0534 16.9881 79.9232 19.0172 79.941 21.1778C80.0122 29.8645 79.9855 38.5335 79.9922 47.2113C79.9831 47.361 79.9637 47.5098 79.9343 47.6568C79.9566 50.1403 79.9633 52.6238 80.01 55.1074C80.0211 55.7088 79.8075 55.8001 79.3048 55.6108C77.8432 55.0628 76.3061 54.849 74.7778 54.5928C73.0537 54.3011 71.0516 55.0049 70.4198 56.1141C69.3275 58.0275 69.4343 59.845 70.7157 61.3752C71.2197 62.003 71.8941 62.4717 72.6577 62.725C73.5698 62.9856 73.2651 63.1705 72.858 63.5959C70.8558 65.6896 68.6735 67.5762 66.5646 69.5497C65.7527 70.3092 64.9207 71.0442 64.0909 71.777C63.2144 72.5611 63.032 73.256 63.6304 73.8195C64.4246 74.5724 65.0586 74.0089 65.6437 73.4721C68.8426 70.5453 72.0949 67.6809 75.1893 64.6405C76.3172 63.5268 77.2626 63.3487 78.5262 64.1171C78.8399 64.3087 79.1802 64.4534 79.6162 64.6739C78.7264 65.5181 77.8677 66.3222 77.009 67.1241C73.7211 70.2023 70.3553 73.2783 67.0184 76.3788C66.4578 76.9022 65.7415 77.243 65.3077 77.9224C64.9273 78.5215 64.5647 79.114 65.2121 79.7043C65.8594 80.2945 66.4245 79.9515 66.9673 79.457C69.57 77.0812 72.1765 74.7164 74.7867 72.3628C76.4818 70.8237 78.1703 69.2802 79.9944 67.6185C80.3014 71.0866 79.7631 74.1358 77.6386 76.802Z" fill="url(#paint1_linear_6_325)"/>
<defs>
<linearGradient id="paint0_linear_6_325" x1="140.481" y1="19.7285" x2="140.481" y2="72.7285" gradientUnits="userSpaceOnUse">
<stop stop-color="#439E7D"/>
<stop offset="1" stop-color="#194E4B"/>
</linearGradient>
<linearGradient id="paint1_linear_6_325" x1="44.679" y1="10.4443" x2="44.679" y2="81.2345" gradientUnits="userSpaceOnUse">
<stop stop-color="#439E7D"/>
<stop offset="1" stop-color="#194E4B"/>
</linearGradient>
</defs>
</svg>
